<svg xmlns="http://www.w3.org/2000/svg" viewBox="0 0 474 100" id="github-mark-and-logo"><defs><style>.a,.b{fill:#fff;}.b{fill-rule:evenodd;}</style></defs><path class="a" d="M182.24,43H152a1.42,1.42,0,0,0-1.42,1.41V59.2A1.43,1.43,0,0,0,152,60.62h11.81V79s-2.66.91-10,.91c-8.64,0-20.72-3.16-20.72-29.73s12.58-30.06,24.39-30.06c10.22,0,14.62,1.8,17.42,2.66a1.42,1.42,0,0,0,1.7-1.38L180,7.1A1.33,1.33,0,0,0,179.41,6c-1.13-.81-8.08-4.69-25.62-4.69-20.2,0-40.93,8.59-40.93,49.92S136.59,98.7,156.59,98.7c16.56,0,26.6-7.07,26.6-7.07a1.23,1.23,0,0,0,.46-1.07V44.4A1.41,1.41,0,0,0,182.24,43Z"/><path class="a" d="M338.22,6.25a1.41,1.41,0,0,0-1.41-1.42h-17a1.41,1.41,0,0,0-1.41,1.42V39.18H291.8V6.25a1.41,1.41,0,0,0-1.41-1.42h-17A1.41,1.41,0,0,0,272,6.25V95.43a1.41,1.41,0,0,0,1.4,1.42h17a1.42,1.42,0,0,0,1.41-1.42V57.28h26.56l0,38.15a1.42,1.42,0,0,0,1.41,1.42h17.08a1.42,1.42,0,0,0,1.41-1.42Z"/><path class="a" d="M214.39,18a11,11,0,1,0-11,11.1A11,11,0,0,0,214.39,18Z"/><path class="a" d="M213.18,76.61V35.45A1.42,1.42,0,0,0,211.77,34h-17a1.62,1.62,0,0,0-1.48,1.58v59c0,1.73,1.08,2.25,2.48,2.25h15.3c1.68,0,2.1-.83,2.1-2.28Z"/><path class="a" d="M403,34.16H386.07a1.42,1.42,0,0,0-1.4,1.43V79.32a19.14,19.14,0,0,1-10.4,3.14c-6.09,0-7.71-2.77-7.71-8.74V35.59a1.42,1.42,0,0,0-1.41-1.43H348a1.42,1.42,0,0,0-1.41,1.43v41c0,17.73,9.88,22.07,23.48,22.07,11.15,0,20.15-6.16,20.15-6.16a36.43,36.43,0,0,0,.62,3.63,1.47,1.47,0,0,0,1.24.77l10.92,0a1.42,1.42,0,0,0,1.41-1.43V35.59A1.42,1.42,0,0,0,403,34.16Z"/><path stroke="none" stroke-width="0" class="a" d="M449.21,32.16a31.76,31.76,0,0,0-16.14,4.29V6.25a1.41,1.41,0,0,0-1.41-1.42H414.57a1.41,1.41,0,0,0-1.4,1.42V95.43a1.42,1.42,0,0,0,1.41,1.42h11.85a1.41,1.41,0,0,0,1.24-.75,28.5,28.5,0,0,0,.72-4.12s7,6.63,20.22,6.63c15.53,0,24.44-7.88,24.44-35.37S458.82,32.16,449.21,32.16Zm-6.67,50.25a20.25,20.25,0,0,1-9.85-2.85V51.32a22.62,22.62,0,0,1,8.74-2.83c6.09-.55,12,1.29,12,15.82C453.39,79.63,450.74,82.65,442.54,82.41Z"/><path class="a" d="M262.16,34H249.37l0-16.89c0-.64-.33-1-1.07-1H230.86c-.67,0-1,.3-1,.95V34.58s-8.73,2.1-9.32,2.27a1.42,1.42,0,0,0-1,1.36v11a1.41,1.41,0,0,0,1.41,1.42h8.93V77c0,19.59,13.75,21.52,23,21.52A38.91,38.91,0,0,0,263,96.84a1.32,1.32,0,0,0,.8-1.28V83.5a1.44,1.44,0,0,0-1.41-1.43c-.74,0-2.65.31-4.61.31-6.28,0-8.41-2.92-8.41-6.7V50.6h12.79a1.41,1.41,0,0,0,1.41-1.42V35.44A1.42,1.42,0,0,0,262.16,34Z"/><path class="b" d="M46,6.11a45,45,0,0,0-14.22,87.7c2.25.41,3.07-1,3.07-2.17s0-3.9-.06-7.65c-12.52,2.72-15.16-6-15.16-6-2-5.2-5-6.59-5-6.59-4.09-2.79.3-2.73.3-2.73,4.52.32,6.9,4.64,6.9,4.64,4,6.87,10.53,4.89,13.09,3.74a9.64,9.64,0,0,1,2.86-6c-10-1.14-20.5-5-20.5-22.24a17.42,17.42,0,0,1,4.64-12.08c-.47-1.13-2-5.71.44-11.91,0,0,3.77-1.21,12.37,4.62a42.5,42.5,0,0,1,22.53,0c8.59-5.83,12.37-4.62,12.37-4.62C72,31,70.5,35.55,70,36.68a17.37,17.37,0,0,1,4.63,12.08c0,17.29-10.52,21.09-20.55,22.2,1.62,1.39,3.06,4.14,3.06,8.34,0,6-.06,10.87-.06,12.34,0,1.21.81,2.61,3.1,2.17A45,45,0,0,0,46,6.11Z"/></svg>