<svg xmlns="http://www.w3.org/2000/svg" viewBox="0 0 250 203.18" id="twitter-logo"><defs><style>.a{fill:#fff;}</style></defs><title>twitter-logo</title><path class="a" d="M83.91,191.59c83.58,0,129.29-69.25,129.29-129.29,0-2,0-3.93-.13-5.87A92.55,92.55,0,0,0,235.74,32.9a90.58,90.58,0,0,1-26.09,7.15,45.58,45.58,0,0,0,20-25.13,91.34,91.34,0,0,1-28.86,11,45.48,45.48,0,0,0-77.43,41.44A129,129,0,0,1,29.67,19.91,45.48,45.48,0,0,0,43.74,80.57a45.1,45.1,0,0,1-20.58-5.68c0,.19,0,.38,0,.58A45.47,45.47,0,0,0,59.61,120a45.33,45.33,0,0,1-20.52.78,45.48,45.48,0,0,0,42.45,31.56A91.25,91.25,0,0,1,25.1,171.81a92.4,92.4,0,0,1-10.84-.63,128.62,128.62,0,0,0,69.65,20.41"/></svg>
